<svg xmlns="http://www.w3.org/2000/svg" width="774" height="178" viewBox="0 0 774 178">
  <defs>
    <style>
      .cls-1 {
        fill: #fff;
        stroke: #000;
        stroke-width: 1px;
        fill-rule: evenodd;
      }
    </style>
  </defs>
  <path id="JAGER" class="cls-1" d="M53.514,127.216H35.032v25.171H53.514A58.254,58.254,0,0,0,66.98,150.8a58.981,58.981,0,0,0,44.007-43.83,79.273,79.273,0,0,0,1.584-12.542q0.264-6.116.176-12.014-0.088-2.288-.088-4.489V26.441H87.487V77.929q0,2.376.088,4.753a82.233,82.233,0,0,1-1.144,18.659,34.087,34.087,0,0,1-25.172,25,34.069,34.069,0,0,1-7.745.88h0Zm182,4.224,11.265,20.947h28.605L207.612,26.441h-26.4l-67.77,125.946h28.6l11.266-20.947h82.2Zm-13.554-25.259h-55.1L194.41,55.133Zm151.734,46.206q20.154,0,35.645-14.786,14.7-15.4,14.7-35.557V85.234H356.881v25.171h40.574a25.469,25.469,0,0,1-9.153,12.146,24.234,24.234,0,0,1-14.61,4.665H327.485a25.243,25.243,0,0,1-25.172-25.172V76.872a25.243,25.243,0,0,1,25.172-25.26h46.207a24.245,24.245,0,0,1,14.61,4.665,25.484,25.484,0,0,1,9.153,12.146h25.876a49.726,49.726,0,0,0-13.994-27.2q-15.492-14.786-35.645-14.786H327.485q-20.156,0-35.557,14.786-14.787,15.4-14.786,35.645v25.172q0,20.156,14.786,35.557,15.4,14.787,35.557,14.786h46.207Zm206.478,0V127.216H466.81V102.044H555V76.872H466.81V51.613H580.17V26.441H441.638V152.387H580.17ZM679.1,110.405l22.267,41.542h28.6l-24.555-45.766a42.611,42.611,0,0,0,17.03-15.315,40.534,40.534,0,0,0,6.469-22.443,40.481,40.481,0,0,0-5.677-21.079,43.131,43.131,0,0,0-15.182-15.226,40.414,40.414,0,0,0-21.123-5.677H597.773V152.387h25.172V110.405H679.1Zm7.833-58.792a16.826,16.826,0,0,1,16.81,16.811,16.826,16.826,0,0,1-16.81,16.81H622.945V51.613H686.93Z"/>
</svg>
